<svg height="448pt" viewBox="0 0 448 448" width="448pt" xmlns="http://www.w3.org/2000/svg"><path d="m176 448h96c4.417969 0 8-3.582031 8-8s-3.582031-8-8-8h-96c-4.417969 0-8 3.582031-8 8s3.582031 8 8 8zm0 0"/><path d="m224 392c-13.488281-.050781-26.917969-1.734375-40-5.015625v29.015625h80v-29.015625c-13.082031 3.28125-26.511719 4.964844-40 5.015625zm0 0"/><path d="m416 264v-80h-29.015625c6.6875 26.246094 6.6875 53.753906 0 80zm0 0"/><path d="m312 224c0 48.601562-39.398438 88-88 88s-88-39.398438-88-88 39.398438-88 88-88 88 39.398438 88 88zm0 0"/><path d="m440 280c4.417969 0 8-3.582031 8-8v-96c0-4.417969-3.582031-8-8-8s-8 3.582031-8 8v96c0 4.417969 3.582031 8 8 8zm0 0"/><path d="m8 280c4.417969 0 8-3.582031 8-8v-96c0-4.417969-3.582031-8-8-8s-8 3.582031-8 8v96c0 4.417969 3.582031 8 8 8zm0 0"/><path d="m224 56c13.488281.050781 26.917969 1.734375 40 5.015625v-29.015625h-80v29.015625c13.082031-3.28125 26.511719-4.964844 40-5.015625zm0 0"/><path d="m32 184v80h29.015625c-6.6875-26.246094-6.6875-53.753906 0-80zm0 0"/><path d="m272 0h-96c-4.417969 0-8 3.582031-8 8s3.582031 8 8 8h96c4.417969 0 8-3.582031 8-8s-3.582031-8-8-8zm0 0"/><path d="m224 72c-83.949219 0-152 68.050781-152 152s68.050781 152 152 152 152-68.050781 152-152c-.09375-83.910156-68.089844-151.90625-152-152zm0 256c-57.4375 0-104-46.5625-104-104s46.5625-104 104-104 104 46.5625 104 104c-.066406 57.410156-46.589844 103.933594-104 104zm0 0"/></svg>