<?xml version="1.0" encoding="iso-8859-1"?>
<!-- Generator: Adobe Illustrator 19.0.0, SVG Export Plug-In . SVG Version: 6.00 Build 0)  -->
<svg version="1.1" id="Layer_1" xmlns="http://www.w3.org/2000/svg" xmlns:xlink="http://www.w3.org/1999/xlink" x="0px" y="0px"
	 viewBox="0 0 512 512" style="enable-background:new 0 0 512 512;" xml:space="preserve">
<circle style="fill:#FEE187;" cx="256" cy="256" r="256"/>
<path style="fill:#FFC61B;" d="M512,256c0-2.863-0.064-5.711-0.157-8.552l-88.633-90.14l-1.16,113.13l-81.463-81.879
	l-130.586,86.266L94.142,157.496L88.293,299.43l5.33,4.446l-2.234,51.91l156.057,156.057c2.841,0.093,5.689,0.157,8.552,0.157
	C397.384,512,512,397.384,512,256z"/>
<path style="fill:#273B7A;" d="M156.579,256H95.032v-96.144c0-2.012-1.631-3.643-3.643-3.643s-3.641,1.631-3.641,3.643V256h-3.277
	v24.036h3.277v72.108c0,2.012,1.631,3.643,3.641,3.643c2.012,0,3.643-1.631,3.643-3.643v-72.108h50.985v72.108
	c0,2.012,1.631,3.643,3.641,3.643c2.012,0,3.643-1.631,3.643-3.643v-72.108h3.277V256H156.579z"/>
<path style="fill:#121149;" d="M427.529,256h-3.277v-96.144c0-2.012-1.631-3.643-3.643-3.643s-3.643,1.631-3.643,3.643V256h-61.547
	v24.036h3.277v72.108c0,2.012,1.631,3.643,3.643,3.643s3.641-1.631,3.641-3.643v-72.108h50.984v72.108
	c0,2.012,1.631,3.643,3.643,3.643s3.643-1.631,3.643-3.643v-72.108h3.279V256z"/>
<path style="fill:#273B7A;" d="M304.071,348.501h-44.43v-68.467c0-2.012-1.631-3.643-3.643-3.643s-3.643,1.631-3.643,3.643v68.467
	h-44.43c-2.012,0-3.643,1.631-3.643,3.643s1.631,3.643,3.643,3.643h96.144c2.012,0,3.641-1.631,3.641-3.643
	C307.714,350.132,306.083,348.501,304.071,348.501z"/>
<path style="fill:#121149;" d="M304.071,348.501h-44.43v-68.467c0-2.012-1.631-3.641-3.641-3.643v79.391h48.071
	c2.012,0,3.641-1.631,3.641-3.643C307.714,350.132,306.083,348.501,304.071,348.501z"/>
<path style="fill:#D35933;" d="M343.912,319.002V197.429c0-7.475-6.06-13.534-13.534-13.534H181.624
	c-7.475,0-13.534,6.06-13.534,13.534v132.01c0,2.42,1.738,4.503,4.125,4.905c11.145,1.877,44.258,4.574,91.779-16.849
	c38.369-17.298,60.606-5.394,71.483,5.082C338.642,325.627,343.912,323.4,343.912,319.002z"/>
<path style="fill:#B54324;" d="M330.378,183.892H256v137.03c2.619-1.071,5.279-2.205,7.992-3.429
	c38.369-17.298,60.606-5.394,71.483,5.082c3.167,3.051,8.437,0.824,8.437-3.574V197.429
	C343.912,189.952,337.853,183.892,330.378,183.892z"/>
<g>
</g>
<g>
</g>
<g>
</g>
<g>
</g>
<g>
</g>
<g>
</g>
<g>
</g>
<g>
</g>
<g>
</g>
<g>
</g>
<g>
</g>
<g>
</g>
<g>
</g>
<g>
</g>
<g>
</g>
</svg>
